<svg width="20" height="16" viewBox="0 0 20 16" fill="none" xmlns="http://www.w3.org/2000/svg">
<path d="M19.2235 2.92372H16.0069C16.0069 2.92372 14.6791 0 13.0534 0H6.90856C5.28283 0 3.95499 2.92372 3.95499 2.92372H0.738392C0.332752 2.92372 0 3.21831 0 3.57625V15.3123C0 15.6703 0.332752 15.9648 0.738392 15.9648H19.2267C19.6324 15.9648 19.9651 15.6703 19.9651 15.3123V3.57625C19.9651 3.21831 19.6324 2.92372 19.2267 2.92372H19.2235Z" fill="#8C95A0"/>
<path d="M13.6682 11.6949C12.353 13.7317 9.63398 14.3145 7.59627 12.9999C6.63605 12.3791 5.99906 11.451 5.73286 10.4278C5.4318 9.27797 5.59659 8.00775 6.29379 6.93076C7.60895 4.89397 10.328 4.31113 12.3657 5.6257C14.4034 6.94026 14.9865 9.65809 13.6714 11.6949H13.6682Z" fill="#F2F4F6"/>
<path d="M11.3673 7.20007C11.3673 7.20007 12.6413 8.02999 12.2546 9.75001" stroke="#8C95A0" stroke-linecap="round" stroke-linejoin="round"/>
<path d="M11.8491 10.9695C11.8491 10.9695 11.2565 11.6917 10.7589 11.8564" stroke="#8C95A0" stroke-linecap="round" stroke-linejoin="round"/>
<rect x="2" y="5" width="3" height="2" rx="1" fill="#F2F4F6"/>
</svg>
